<?xml version="1.0" encoding="UTF-8"?><svg id="uuid-0b7aa6be-5d95-44c7-9165-1b6c591c83b8" xmlns="http://www.w3.org/2000/svg" viewBox="0 0 512 512"><rect id="uuid-84a43b44-8264-4c7f-b4b5-a4d0e674a527" width="512" height="512" style="fill:#fff;"/><path id="uuid-a96fd28b-3369-41f5-8e48-5262938e003e" d="M423.59,414.42c-12.53,0-22.82-4.03-30.88-12.08s-12.08-17.6-12.08-28.64,4.03-20.81,12.08-28.42c8.06-7.61,18.35-11.41,30.88-11.41s23.19,3.8,31.1,11.41c7.9,7.61,11.86,17.08,11.86,28.42s-3.96,20.58-11.86,28.64c-7.91,8.06-18.28,12.08-31.1,12.08Zm-27.84-113.77l-13.77-203.06h59.88c12.64,0,22.63,10.7,21.78,23.3l-11.9,175.46c-.22,3.23-2.91,5.74-6.15,5.74h-48.29c-.81,0-1.49-.63-1.55-1.44Z"/><path id="uuid-664cdc5e-9b08-4bf7-8e0e-8364f32dfbdd" d="M45.45,335.2v-40.71c0-2.23,1.81-4.03,4.03-4.03H330.5c2.23,0,4.03,1.81,4.03,4.03v40.71c0,2.23-1.81,4.03-4.03,4.03H49.48c-2.23,0-4.03-1.81-4.03-4.03Zm15.21-121.27v-40.71c0-2.23,1.81-4.03,4.03-4.03H345.31c2.21,0,4.01,1.78,4.03,4l.37,40.71c.02,2.24-1.79,4.07-4.03,4.07H64.7c-2.23,0-4.03-1.81-4.03-4.03Zm35.02,192.38L133.62,101.12c.25-2.02,1.97-3.54,4-3.54h41.99c2.42,0,4.3,2.12,4,4.53l-37.93,305.19c-.25,2.02-1.97,3.54-4,3.54h-41.99c-2.42,0-4.3-2.12-4-4.53Zm115.9,0L249.52,101.12c.25-2.02,1.97-3.54,4-3.54h42c2.42,0,4.3,2.12,4,4.52l-37.5,305.19c-.25,2.02-1.97,3.54-4,3.54h-42.43c-2.42,0-4.3-2.12-4-4.53Z"/></svg>